<svg width="183" height="94" viewBox="0 0 183 94" fill="none" xmlns="http://www.w3.org/2000/svg">
<path d="M17.36 75.8H9.6L2.4 70.2L9.6 77.4H17.36V79H8.96L0.8 70.84V23.88L17.36 18.28V75.8ZM15.76 20.52L14.16 54.52H15.76V20.52ZM63.4675 36.28L75.7875 47.48V75.8H12.5875V54.52H55.7875C63.8675 54.52 67.1475 59.08 67.2275 59.16C65.3875 53.96 60.1075 52.92 55.8675 52.92H26.1875L18.9875 43.24V30.84L34.1875 19L75.5475 15.88L71.4675 34.68H38.8275C36.9075 34.68 31.7075 34.76 29.2275 39.8C31.5475 36.76 34.1875 36.28 38.8275 36.28H63.4675ZM38.8275 31.48C32.5875 31.48 27.9475 34.92 27.9475 38.84C30.9075 33.16 36.9075 33.08 38.8275 33.08H70.1875L73.5475 17.64L68.9075 31.48H38.8275ZM55.8675 51.32C62.7475 51.32 65.0675 52.84 67.3075 55.88C65.4675 50.84 60.7475 49.72 55.8675 49.72H27.3875L22.8275 45.64L27.0675 51.32H55.8675ZM12.5875 79V77.4H75.7875V79H12.5875ZM88.8612 44.84L105.421 38.44V75.8H71.1812V54.52H96.6213L88.8612 52.92V44.84ZM103.821 52.92V40.04L102.221 52.92H103.821ZM71.1812 79V77.4H105.421V79H71.1812ZM80.3813 90.92C77.9813 88.52 77.9813 84.84 80.3813 82.44C82.7013 80.12 86.5412 80.12 88.8612 82.44C91.1813 84.76 91.1813 88.6 88.8612 90.92C86.5412 93.24 82.7013 93.24 80.3813 90.92ZM94.0613 90.92C91.6613 88.52 91.6613 84.84 94.0613 82.44C96.3812 80.12 100.221 80.12 102.541 82.44C104.861 84.76 104.861 88.6 102.541 90.92C100.221 93.24 96.3812 93.24 94.0613 90.92ZM81.5013 89.8C83.2613 91.48 86.0613 91.48 87.7413 89.8C88.7812 88.76 89.1812 87.32 88.9412 85.96C88.7812 86.76 88.3813 87.56 87.7413 88.2C86.0613 89.88 83.1813 89.96 81.5013 88.2C80.8613 87.48 80.3813 86.68 80.2212 85.88C79.9813 87.24 80.3813 88.68 81.5013 89.8ZM95.1813 89.8C96.9413 91.48 99.7413 91.48 101.421 89.8C102.461 88.76 102.861 87.32 102.621 85.96C102.461 86.76 102.061 87.56 101.421 88.2C99.7413 89.88 96.8613 89.96 95.1813 88.2C94.5413 87.48 94.0613 86.68 93.9013 85.88C93.6613 87.24 94.0613 88.68 95.1813 89.8ZM117.579 33.32C115.259 35.64 111.419 35.64 109.099 33.32C106.699 30.92 106.699 27.24 109.099 24.84C111.419 22.52 115.259 22.52 117.579 24.84C119.899 27.16 119.899 31 117.579 33.32ZM131.259 33.32C128.939 35.64 125.099 35.64 122.779 33.32C120.379 30.92 120.379 27.24 122.779 24.84C125.099 22.52 128.939 22.52 131.259 24.84C133.579 27.16 133.579 31 131.259 33.32ZM108.939 28.28C108.699 29.64 109.099 31.08 110.219 32.2C111.979 33.88 114.779 33.88 116.459 32.2C117.499 31.16 117.899 29.72 117.659 28.36C117.499 29.16 117.099 29.96 116.459 30.6C114.779 32.28 111.899 32.36 110.219 30.6C109.579 29.88 109.099 29.08 108.939 28.28ZM122.619 28.28C122.379 29.64 122.779 31.08 123.899 32.2C125.659 33.88 128.459 33.88 130.139 32.2C131.179 31.16 131.579 29.72 131.339 28.36C131.179 29.16 130.779 29.96 130.139 30.6C128.459 32.28 125.579 32.36 123.899 30.6C123.259 29.88 122.779 29.08 122.619 28.28ZM118.299 44.84L134.859 38.44V75.8H100.619V54.52H126.059L118.299 52.92V44.84ZM133.259 52.92V40.04L131.659 52.92H133.259ZM100.619 79V77.4H134.859V79H100.619ZM150.216 35.32C147.816 32.92 147.816 29.24 150.216 26.84C152.536 24.52 156.376 24.52 158.696 26.84C161.016 29.16 161.016 33 158.696 35.32C156.376 37.64 152.536 37.64 150.216 35.32ZM151.336 34.2C153.096 35.88 155.896 35.88 157.576 34.2C158.616 33.16 159.016 31.72 158.776 30.36C158.616 31.16 158.216 31.96 157.576 32.6C155.896 34.28 153.016 34.36 151.336 32.6C150.696 31.88 150.216 31.08 150.056 30.28C149.816 31.64 150.216 33.08 151.336 34.2ZM147.736 44.84L164.296 38.44V79H130.056V77.4H162.696V39.88L161.096 75.8H130.056V54.52H155.496L147.736 52.92V44.84ZM165.786 16.68V4.36L180.506 0.360001L179.946 7.56H175.146C173.306 7.56 169.386 7.88 169.386 12.36C169.386 10.2 172.186 9.16 175.146 9.16H182.266V16.68H165.786ZM169.066 8.36C170.266 6.76 172.346 5.96 175.146 5.96H178.426L178.746 2.92L177.706 5C171.226 5 169.866 6.36 169.066 8.36ZM167.386 15.08H180.666V10.76L179.866 14.2L167.386 15.08ZM165.706 79V18.28H182.266V79H165.706ZM167.306 77.4H180.666V20.52L179.066 75.8L167.306 77.4Z" fill="white"/>
</svg>
