 <svg
              width="85"
              height="32"
              viewBox="0 0 85 32"
              fill="none"
              xmlns="http://www.w3.org/2000/svg"
            >
              <path
                d="M16.6 7.56C17.0267 8.54667 17.24 9.62667 17.24 10.8C17.24 12 17.0267 13.0933 16.6 14.08C16.2 15.0667 15.6133 15.92 14.84 16.64C14.0933 17.36 13.2267 17.9067 12.24 18.28C11.2533 18.6533 10.1867 18.84 9.04 18.84C7.86667 18.84 6.77333 18.6533 5.76 18.28C4.77333 17.9067 3.92 17.36 3.2 16.64C2.42667 15.92 1.82667 15.0667 1.4 14.08C1 13.0933 0.8 12 0.8 10.8C0.8 9.62667 1 8.54667 1.4 7.56C1.82667 6.57333 2.42667 5.70667 3.2 4.96C3.92 4.26667 4.77333 3.73333 5.76 3.36C6.77333 2.98667 7.86667 2.8 9.04 2.8C10.1867 2.8 11.2533 2.98667 12.24 3.36C13.2267 3.73333 14.0933 4.26667 14.84 4.96C15.6133 5.70667 16.2 6.57333 16.6 7.56ZM13.72 15.52C14.8933 14.3733 15.48 12.8 15.48 10.8C15.48 8.88 14.88 7.32 13.68 6.12C12.5333 5.02667 10.9867 4.48 9.04 4.48C7.09333 4.48 5.54667 5.02667 4.4 6.12C3.2 7.32 2.6 8.88 2.6 10.8C2.6 12.8 3.18667 14.3733 4.36 15.52C5.53333 16.64 7.09333 17.2 9.04 17.2C10.9867 17.2 12.5467 16.64 13.72 15.52ZM11.56 7.2C12.0933 7.68 12.36 8.30667 12.36 9.08C12.36 10.2533 11.8 11.0533 10.68 11.48L12.4 15H10.84L9.32 11.76H7.56V15H6.12V6.48H9.52C10.3467 6.48 11.0267 6.72 11.56 7.2ZM10.44 10.24C10.8133 10 11 9.62667 11 9.12C11 8.72 10.8667 8.4 10.6 8.16C10.3333 7.92 9.96 7.8 9.48 7.8H7.56V10.6H9.08C9.61333 10.6 10.0667 10.48 10.44 10.24ZM29.8257 25.9333H27.2391L24.8391 24.0667L27.2391 26.4667H29.8257V27H27.0257L24.3057 24.28V8.62667L29.8257 6.76V25.9333ZM29.2924 7.50667L28.7591 18.84H29.2924V7.50667ZM45.1949 12.76L49.3016 16.4933V25.9333H28.2349V18.84H42.6349C45.3282 18.84 46.4216 20.36 46.4482 20.3867C45.8349 18.6533 44.0749 18.3067 42.6616 18.3067H32.7682L30.3682 15.08V10.9467L35.4349 7L49.2216 5.96L47.8616 12.2267H36.9816C36.3416 12.2267 34.6082 12.2533 33.7816 13.9333C34.5549 12.92 35.4349 12.76 36.9816 12.76H45.1949ZM36.9816 11.16C34.9016 11.16 33.3549 12.3067 33.3549 13.6133C34.3416 11.72 36.3416 11.6933 36.9816 11.6933H47.4349L48.5549 6.54667L47.0082 11.16H36.9816ZM42.6616 17.7733C44.9549 17.7733 45.7282 18.28 46.4749 19.2933C45.8616 17.6133 44.2882 17.24 42.6616 17.24H33.1682L31.6482 15.88L33.0616 17.7733H42.6616ZM28.2349 27V26.4667H49.3016V27H28.2349ZM53.6595 15.6133L59.1795 13.48V25.9333H47.7661V18.84H56.2461L53.6595 18.3067V15.6133ZM58.6461 18.3067V14.0133L58.1128 18.3067H58.6461ZM47.7661 27V26.4667H59.1795V27H47.7661ZM50.8328 30.9733C50.0328 30.1733 50.0328 28.9467 50.8328 28.1467C51.6061 27.3733 52.8861 27.3733 53.6595 28.1467C54.4328 28.92 54.4328 30.2 53.6595 30.9733C52.8861 31.7467 51.6061 31.7467 50.8328 30.9733ZM55.3928 30.9733C54.5928 30.1733 54.5928 28.9467 55.3928 28.1467C56.1661 27.3733 57.4461 27.3733 58.2195 28.1467C58.9928 28.92 58.9928 30.2 58.2195 30.9733C57.4461 31.7467 56.1661 31.7467 55.3928 30.9733ZM51.2061 30.6C51.7928 31.16 52.7261 31.16 53.2861 30.6C53.6328 30.2533 53.7661 29.7733 53.6861 29.32C53.6328 29.5867 53.4995 29.8533 53.2861 30.0667C52.7261 30.6267 51.7661 30.6533 51.2061 30.0667C50.9928 29.8267 50.8328 29.56 50.7795 29.2933C50.6995 29.7467 50.8328 30.2267 51.2061 30.6ZM55.7661 30.6C56.3528 31.16 57.2861 31.16 57.8461 30.6C58.1928 30.2533 58.3261 29.7733 58.2461 29.32C58.1928 29.5867 58.0595 29.8533 57.8461 30.0667C57.2861 30.6267 56.3261 30.6533 55.7661 30.0667C55.5528 29.8267 55.3928 29.56 55.3395 29.2933C55.2595 29.7467 55.3928 30.2267 55.7661 30.6ZM63.232 11.7733C62.4586 12.5467 61.1786 12.5467 60.4053 11.7733C59.6053 10.9733 59.6053 9.74667 60.4053 8.94667C61.1786 8.17333 62.4586 8.17333 63.232 8.94667C64.0053 9.72 64.0053 11 63.232 11.7733ZM67.792 11.7733C67.0186 12.5467 65.7386 12.5467 64.9653 11.7733C64.1653 10.9733 64.1653 9.74667 64.9653 8.94667C65.7386 8.17333 67.0186 8.17333 67.792 8.94667C68.5653 9.72 68.5653 11 67.792 11.7733ZM60.352 10.0933C60.272 10.5467 60.4053 11.0267 60.7786 11.4C61.3653 11.96 62.2986 11.96 62.8586 11.4C63.2053 11.0533 63.3386 10.5733 63.2586 10.12C63.2053 10.3867 63.072 10.6533 62.8586 10.8667C62.2986 11.4267 61.3386 11.4533 60.7786 10.8667C60.5653 10.6267 60.4053 10.36 60.352 10.0933ZM64.912 10.0933C64.832 10.5467 64.9653 11.0267 65.3386 11.4C65.9253 11.96 66.8586 11.96 67.4186 11.4C67.7653 11.0533 67.8986 10.5733 67.8186 10.12C67.7653 10.3867 67.632 10.6533 67.4186 10.8667C66.8586 11.4267 65.8986 11.4533 65.3386 10.8667C65.1253 10.6267 64.9653 10.36 64.912 10.0933ZM63.472 15.6133L68.992 13.48V25.9333H57.5786V18.84H66.0586L63.472 18.3067V15.6133ZM68.4586 18.3067V14.0133L67.9253 18.3067H68.4586ZM57.5786 27V26.4667H68.992V27H57.5786ZM74.1111 12.44C73.3111 11.64 73.3111 10.4133 74.1111 9.61333C74.8845 8.84 76.1645 8.84 76.9378 9.61333C77.7111 10.3867 77.7111 11.6667 76.9378 12.44C76.1645 13.2133 74.8845 13.2133 74.1111 12.44ZM74.4845 12.0667C75.0711 12.6267 76.0045 12.6267 76.5645 12.0667C76.9111 11.72 77.0445 11.24 76.9645 10.7867C76.9111 11.0533 76.7778 11.32 76.5645 11.5333C76.0045 12.0933 75.0445 12.12 74.4845 11.5333C74.2711 11.2933 74.1111 11.0267 74.0578 10.76C73.9778 11.2133 74.1111 11.6933 74.4845 12.0667ZM73.2845 15.6133L78.8045 13.48V27H67.3911V26.4667H78.2711V13.96L77.7378 25.9333H67.3911V18.84H75.8711L73.2845 18.3067V15.6133ZM79.3011 6.22667V2.12L84.2078 0.786667L84.0211 3.18667H82.4211C81.8078 3.18667 80.5011 3.29333 80.5011 4.78667C80.5011 4.06667 81.4345 3.72 82.4211 3.72H84.7945V6.22667H79.3011ZM80.3945 3.45333C80.7945 2.92 81.4878 2.65333 82.4211 2.65333H83.5145L83.6211 1.64L83.2745 2.33333C81.1145 2.33333 80.6611 2.78667 80.3945 3.45333ZM79.8345 5.69333H84.2611V4.25333L83.9945 5.4L79.8345 5.69333ZM79.2745 27V6.76H84.7945V27H79.2745ZM79.8078 26.4667H84.2611V7.50667L83.7278 25.9333L79.8078 26.4667Z"
                fill="white"
              />
            </svg>