<svg width="188" height="56" viewBox="0 0 188 56" fill="none" xmlns="http://www.w3.org/2000/svg">
<g clip-path="url(#clip0_1474_25593)">
<path d="M171.768 54.9842C171.091 55.8045 170.007 56.1695 168.972 55.9257C167.937 55.6819 167.131 54.8712 166.891 53.8353L165.787 31.733L146.934 31.733C144.872 31.733 143.2 30.0619 143.2 27.9997L143.2 0.933224C143.2 0.417797 143.618 -0.000103033 144.134 -0.000103078L146.933 -0.000103323C147.423 -0.00146903 147.831 0.375873 147.867 0.86441L149.39 21.4664L166.009 21.4664L172.169 0.668447C172.287 0.271055 172.652 -0.00147123 173.067 -0.000105608L175.867 -0.000105853C176.15 -0.000105877 176.418 0.127953 176.595 0.348981C176.773 0.570008 176.84 0.859395 176.779 1.13602L171.22 26.149L172.353 52.6759C172.513 53.4944 172.299 54.3411 171.768 54.9842ZM146.067 1.86655L145.067 1.86655L145.067 25.1997L147.795 25.1997L146.067 1.86655ZM149.529 23.3331L149.667 25.1997L164.903 25.1997L165.456 23.3331L149.529 23.3331ZM173.764 1.86655L167.604 22.6613L166.851 25.1997L169.52 25.1997L174.705 1.86655L173.764 1.86655ZM170.523 53.0309L169.497 27.0664L145.067 27.0664L145.067 27.9997C145.067 29.0306 145.903 29.8664 146.934 29.8664L166.533 29.8664C166.968 29.8664 167.346 30.1662 167.443 30.5896L168.71 53.4142C168.829 53.9005 169.313 54.2044 169.802 54.1005C170.292 53.9971 170.611 53.5236 170.523 53.0309Z" fill="#181D25"/>
</g>
<circle cx="94" cy="28" r="27" stroke="#181D25" stroke-width="2"/>
<circle cx="94" cy="28" r="22" stroke="#181D25" stroke-width="2"/>
<circle cx="94" cy="28" r="2" fill="#181D25"/>
<g clip-path="url(#clip1_1474_25593)">
<path d="M38.7678 54.9842C38.091 55.8045 37.0073 56.1695 35.9723 55.9257C34.9374 55.6819 34.1307 54.8712 33.8915 53.8353L33.7869 31.733L14.9335 31.733C12.8718 31.733 11.2002 30.0619 11.2002 27.9997L11.2002 0.933224C11.2002 0.417797 11.6181 -0.000103033 12.1335 -0.000103078L14.9335 -0.000103323C15.4234 -0.00146903 15.8308 0.375873 15.8668 0.86441L17.3903 21.4664L34.0088 21.4664L40.1689 0.668447C40.2869 0.271055 40.6524 -0.00147123 41.0667 -0.000105608L43.8666 -0.000105853C44.1501 -0.000105877 44.4181 0.127953 44.5954 0.348981C44.7726 0.570008 44.8401 0.859395 44.7786 1.13602L39.2196 26.149L39.3529 52.6759C39.5133 53.4944 39.2987 54.3411 38.7678 54.9842ZM14.0667 1.86655L13.0668 1.86655L13.0668 25.1997L15.7953 25.1997L14.0667 1.86655ZM17.5293 23.3331L17.6674 25.1997L32.9032 25.1997L33.4565 23.3331L17.5293 23.3331ZM41.7639 1.86655L35.6039 22.6613L34.851 25.1997L37.5202 25.1997L42.705 1.86655L41.7639 1.86655ZM37.5227 53.0309L37.497 27.0664L13.0668 27.0664L13.0668 27.9997C13.0668 29.0306 13.9026 29.8664 14.9335 29.8664L34.5334 29.8664C34.9681 29.8664 35.3459 30.1662 35.4435 30.5896L35.7103 53.4142C35.8292 53.9005 36.3128 54.2044 36.8022 54.1005C37.2921 53.9971 37.6111 53.5236 37.5227 53.0309Z" fill="#181D25"/>
</g>
<defs>
<clipPath id="clip0_1474_25593">
<rect width="56" height="56" fill="white" transform="matrix(1 -8.74228e-08 -8.74228e-08 -1 132 56)"/>
</clipPath>
<clipPath id="clip1_1474_25593">
<rect width="56" height="56" fill="white" transform="matrix(1 -8.74228e-08 -8.74228e-08 -1 0 56)"/>
</clipPath>
</defs>
</svg>
